name Run_400 02_newCOP3_v24.mot
datacolumns 19
datarows 163
range 2.8 2.962
DataType=double
version=3
OpenSimVersion=4.3-2021-08-27-4bc7ad9
endheader
time	R_ground_force_vx	R_ground_force_vy	R_ground_force_vz	R_ground_force_px	R_ground_force_py	R_ground_force_pz	L_ground_force_vx	L_ground_force_vy	L_ground_force_vz	L_ground_force_px	L_ground_force_py	L_ground_force_pz	R_ground_torque_x	R_ground_torque_y	R_ground_torque_z	L_ground_torque_x	L_ground_torque_y	L_ground_torque_z
2.8	0	0	0	0	0	0	3.96416	15.315462	-1.63417	0	0	0	0	0	0	0	0	0
2.801	0	0	0	0	0	0	2.783849	14.162023	-2.203703	0	0	0	0	0	0	0	0	0
2.802	0	0	0	0	0	0	1.696652	13.103011	-2.719502	0	0	0	0	0	0	0	0	0
2.803	0	0	0	0	0	0	0.70524	12.130363	-3.168948	0	0	0	0	0	0	0	0	0
2.804	0	0	0	0	0	0	-0.188298	11.236839	-3.54148	0	0	0	0	0	0	0	0	0
2.805	0	0	0	0	0	0	-0.982567	10.416017	-3.828822	0	0	0	0	0	0	0	0	0
2.806	0	0	0	0	0	0	0	0	0	0	0	0	0	0	0	0	0	0
2.807	0	0	0	0	0	0	0	0	0	0	0	0	0	0	0	0	0	0
2.808	0	0	0	0	0	0	0	0	0	0	0	0	0	0	0	0	0	0
2.809	0	0	0	0	0	0	0	0	0	0	0	0	0	0	0	0	0	0
2.81	0	0	0	0	0	0	0	0	0	0	0	0	0	0	0	0	0	0
2.811	0	0	0	0	0	0	0	0	0	0	0	0	0	0	0	0	0	0
2.812	0	0	0	0	0	0	0	0	0	0	0	0	0	0	0	0	0	0
2.813	0	0	0	0	0	0	0	0	0	0	0	0	0	0	0	0	0	0
2.814	0	0	0	0	0	0	0	0	0	0	0	0	0	0	0	0	0	0
2.815	0	0	0	0	0	0	0	0	0	0	0	0	0	0	0	0	0	0
2.816	0	0	0	0	0	0	0	0	0	0	0	0	0	0	0	0	0	0
2.817	0	0	0	0	0	0	0	0	0	0	0	0	0	0	0	0	0	0
2.818	0	0	0	0	0	0	0	0	0	0	0	0	0	0	0	0	0	0
2.819	0	0	0	0	0	0	0	0	0	0	0	0	0	0	0	0	0	0
2.82	0	0	0	0	0	0	0	0	0	0	0	0	0	0	0	0	0	0
2.821	0	0	0	0	0	0	0	0	0	0	0	0	0	0	0	0	0	0
2.822	0	0	0	0	0	0	0	0	0	0	0	0	0	0	0	0	0	0
2.823	0	0	0	0	0	0	0	0	0	0	0	0	0	0	0	0	0	0
2.824	0	0	0	0	0	0	0	0	0	0	0	0	0	0	0	0	0	0
2.825	0	0	0	0	0	0	0	0	0	0	0	0	0	0	0	0	0	0
2.826	0	0	0	0	0	0	0	0	0	0	0	0	0	0	0	0	0	0
2.827	0	0	0	0	0	0	0	0	0	0	0	0	0	0	0	0	0	0
2.828	0	0	0	0	0	0	0	0	0	0	0	0	0	0	0	0	0	0
2.829	0	0	0	0	0	0	0	0	0	0	0	0	0	0	0	0	0	0
2.83	0	0	0	0	0	0	0	0	0	0	0	0	0	0	0	0	0	0
2.831	0	0	0	0	0	0	0	0	0	0	0	0	0	0	0	0	0	0
2.832	0	0	0	0	0	0	0	0	0	0	0	0	0	0	0	0	0	0
2.833	0	0	0	0	0	0	0	0	0	0	0	0	0	0	0	0	0	0
2.834	0	0	0	0	0	0	0	0	0	0	0	0	0	0	0	0	0	0
2.835	0	0	0	0	0	0	0	0	0	0	0	0	0	0	0	0	0	0
2.836	0	0	0	0	0	0	0	0	0	0	0	0	0	0	0	0	0	0
2.837	0	0	0	0	0	0	0	0	0	0	0	0	0	0	0	0	0	0
2.838	0	0	0	0	0	0	0	0	0	0	0	0	0	0	0	0	0	0
2.839	0	0	0	0	0	0	0	0	0	0	0	0	0	0	0	0	0	0
2.84	0	0	0	0	0	0	0	0	0	0	0	0	0	0	0	0	0	0
2.841	0	0	0	0	0	0	0	0	0	0	0	0	0	0	0	0	0	0
2.842	0	0	0	0	0	0	0	0	0	0	0	0	0	0	0	0	0	0
2.843	0	0	0	0	0	0	0	0	0	0	0	0	0	0	0	0	0	0
2.844	0	0	0	0	0	0	0	0	0	0	0	0	0	0	0	0	0	0
2.845	0	0	0	0	0	0	0	0	0	0	0	0	0	0	0	0	0	0
2.846	0	0	0	0	0	0	0	0	0	0	0	0	0	0	0	0	0	0
2.847	0	0	0	0	0	0	0	0	0	0	0	0	0	0	0	0	0	0
2.848	0	0	0	0	0	0	0	0	0	0	0	0	0	0	0	0	0	0
2.849	0	0	0	0	0	0	0	0	0	0	0	0	0	0	0	0	0	0
2.85	0	0	0	0	0	0	0	0	0	0	0	0	0	0	0	0	0	0
2.851	0	0	0	0	0	0	0	0	0	0	0	0	0	0	0	0	0	0
2.852	0	0	0	0	0	0	0	0	0	0	0	0	0	0	0	0	0	0
2.853	0	0	0	0	0	0	0	0	0	0	0	0	0	0	0	0	0	0
2.854	0	0	0	0	0	0	0	0	0	0	0	0	0	0	0	0	0	0
2.855	0	0	0	0	0	0	0	0	0	0	0	0	0	0	0	0	0	0
2.856	0	0	0	0	0	0	0	0	0	0	0	0	0	0	0	0	0	0
2.857	0	0	0	0	0	0	0	0	0	0	0	0	0	0	0	0	0	0
2.858	0	0	0	0	0	0	0	0	0	0	0	0	0	0	0	0	0	0
2.859	0	0	0	0	0	0	0	0	0	0	0	0	0	0	0	0	0	0
2.86	0	0	0	0	0	0	0	0	0	0	0	0	0	0	0	0	0	0
2.861	-1.710461	11.115512	-0.446001	0	0	0	0	0	0	0	0	0	0	0	0	0	0	0
2.862	-1.716945	12.471967	-0.502594	0	0	0	0	0	0	0	0	0	0	0	0	0	0	0
2.863	-1.719919	14.074667	-0.610393	0	0	0	0	0	0	0	0	0	0	0	0	0	0	0
2.864	-1.718236	15.96294	-0.7756110000000001	0	0	0	0	0	0	0	0	0	0	0	0	0	0	0
2.865	-1.710396	18.181469	-1.004143	0	0	0	0	0	0	0	0	0	0	0	0	0	0	0
2.866	-1.694512	20.780716	-1.301519	0	0	0	0	0	0	0	0	0	0	0	0	0	0	0
2.867	-1.668284	23.817308	-1.672846	0	0	0	0	0	0	0	0	0	0	0	0	0	0	0
2.868	-1.628972	27.354343	-2.12276	0	0	0	0	0	0	0	0	0	0	0	0	0	0	0
2.869	-1.573384	31.461615	-2.655353	1.114165	0	-0.314575	0	0	0	0	0	0	-0	8.48874	-0	0	0	0
2.87	-1.497872	36.215702	-3.274091	1.124198	0	-0.315208	0	0	0	0	0	0	-0	8.351258	-0	0	0	0
2.871	-1.39836	41.699951	-3.981716	1.14141	0	-0.316386	0	0	0	0	0	0	-0	8.157651	-0	0	0	0
2.872	-1.270403	48.004238	-4.78011	1.176792	0	-0.318931	0	0	0	0	0	0	-0	7.912296	-0	0	0	0
2.873	-1.109291	55.22456	-5.670137	1.287915	0	-0.327161	0	0	0	0	0	0	-0	7.620278	-0	0	0	0
2.874	-0.910197	63.462406	-6.651442	-2.620943	-0	-0.033884	0	0	0	0	0	0	-0	7.287312	-0	0	0	0
2.875	-0.668386	72.823853	-7.722201	0.876658	0	-0.29612	0	0	0	0	0	0	-0	6.919652	-0	0	0	0
2.876	-0.379478	83.418373	-8.878845999999999	0.970778	0	-0.303087	0	0	0	0	0	0	-0	6.523991	-0	0	0	0
2.877	-0.039772	95.35740699999999	-10.11572	1.003154	0	-0.305426	0	0	0	0	0	0	-0	6.107354	-0	0	0	0
2.878	0.353374	108.752541	-11.424713	1.019477	0	-0.306565	0	0	0	0	0	0	-0	5.676982	-0	0	0	0
2.879	0.801119	123.71347	-12.794855	1.029282	0	-0.307218	0	0	0	0	0	0	-0	5.240208	-0	0	0	0
2.88	1.302673	140.345551	-14.211885	1.035806	0	-0.307629	0	0	0	0	0	0	-0	4.804334	-0	0	0	0
2.881	1.854811	158.747162	-15.657826	1.04045	0	-0.307901	0	0	0	0	0	0	-0	4.376517	-0	0	0	0
2.882	2.451386	179.00679	-17.110567	1.043917	0	-0.308089	0	0	0	0	0	0	-0	3.963649	-0	0	0	0
2.883	3.082869	201.199844	-18.543489	1.046602	0	-0.308221	0	0	0	0	0	0	-0	3.572252	-0	0	0	0
2.884	3.735929	225.385437	-19.92518	1.048739	0	-0.308315	0	0	0	0	0	0	-0	3.208377	-0	0	0	0
2.885	4.393106	251.603058	-21.219233	1.05048	0	-0.308382	0	0	0	0	0	0	-0	2.877517	-0	0	0	0
2.886	5.032577	279.869293	-22.384209	1.051924	0	-0.308431	0	0	0	0	0	0	-0	2.584533	-0	0	0	0
2.887	5.628067	310.174713	-23.373772	1.053142	0	-0.308466	0	0	0	0	0	0	-0	2.333589	-0	0	0	0
2.888	6.148911	342.48111	-24.137043	1.054182	0	-0.30849	0	0	0	0	0	0	-0	2.128099	-0	0	0	0
2.889	6.560281	376.719147	-24.61919	1.055081	0	-0.308508	0	0	0	0	0	0	-0	1.970698	-0	0	0	0
2.89	6.8236	412.786407	-24.762304	1.055866	0	-0.308521	0	0	0	0	0	0	-0	1.863212	-0	0	0	0
2.891	6.897119	450.5466	-24.506544	1.056557	0	-0.30853	0	0	0	0	0	0	-0	1.806649	-0	0	0	0
2.892	6.736657	489.828949	-23.791574	1.057171	0	-0.308538	0	0	0	0	0	0	-0	1.801209	-0	0	0	0
2.893	6.296476	530.42926	-22.558281	1.057719	0	-0.308544	0	0	0	0	0	0	-0	1.846291	-0	0	0	0
2.894	5.530269	572.111267	-20.750711	1.058213	0	-0.30855	0	0	0	0	0	0	-0	1.940523	-0	0	0	0
2.895	4.392209	614.609436	-18.31823	1.05866	0	-0.308557	0	0	0	0	0	0	-0	2.081801	-0	0	0	0
2.896	2.838045	657.632751	-15.217793	1.059066	0	-0.308565	0	0	0	0	0	0	-0	2.267334	-0	0	0	0
2.897	0.826195	700.869202	-11.416262	1.059438	0	-0.308574	0	0	0	0	0	0	-0	2.4937	-0	0	0	0
2.898	-1.681192	743.9913330000001	-6.892677	1.059778	0	-0.308586	0	0	0	0	0	0	-0	2.756909	-0	0	0	0
2.899	-4.717226	786.662109	-1.640371	1.060091	0	-0.3086	0	0	0	0	0	0	-0	3.052473	-0	0	0	0
2.9	-8.30935	828.5418089999999	4.331191	1.060379	0	-0.308618	0	0	0	0	0	0	-0	3.375479	-0	0	0	0
2.901	-12.478505	869.294678	10.994944	1.060645	0	-0.308638	0	0	0	0	0	0	-0	3.720666	-0	0	0	0
2.902	-17.238398	908.595825	18.305233	1.060891	0	-0.308662	0	0	0	0	0	0	-0	4.08251	-0	0	0	0
2.903	-22.594894	946.137756	26.197388	1.061117	0	-0.30869	0	0	0	0	0	0	-0	4.455301	-0	0	0	0
2.904	-28.54553	981.636963	34.587925	1.061325	0	-0.308721	0	0	0	0	0	0	-0	4.833228	-0	0	0	0
2.905	-35.079178	1014.839233	43.375393	1.061515	0	-0.308757	0	0	0	0	0	0	-0	5.210462	-0	0	0	0
2.906	-42.175854	1045.524902	52.44191	1.061687	0	-0.308797	0	0	0	0	0	0	-0	5.581233	-0	0	0	0
2.907	-49.806717	1073.512695	61.655319	1.061841	0	-0.308841	0	0	0	0	0	0	-0	5.939908	-0	0	0	0
2.908	-57.934235	1098.663208	70.871925	1.061976	0	-0.308889	0	0	0	0	0	0	-0	6.281065	-0	0	0	0
2.909	-66.512604	1120.880737	79.93971999999999	1.062091	0	-0.308942	0	0	0	0	0	0	-0	6.599566	-0	0	0	0
2.91	-75.48835	1140.114502	88.70201900000001	1.062184	0	-0.308998	0	0	0	0	0	0	-0	6.890609	-0	0	0	0
2.911	-84.801186	1156.359009	97.001328	1.062253	0	-0.309058	0	0	0	0	0	0	-0	7.149798	-0	0	0	0
2.912	-94.385071	1169.652832	104.683334	1.062297	0	-0.309123	0	0	0	0	0	0	-0	7.373187	-0	0	0	0
2.913	-104.169533	1180.077515	111.600891	1.062311	0	-0.30919	0	0	0	0	0	0	-0	7.557326	-0	0	0	0
2.914	-114.08107	1187.753906	117.617859	1.062294	0	-0.30926	0	0	0	0	0	0	-0	7.699298	-0	0	0	0
2.915	-124.044807	1192.839722	122.612648	1.06224	0	-0.309333	0	0	0	0	0	0	-0	7.796744	-0	0	0	0
2.916	-133.986084	1195.524902	126.481377	1.062147	0	-0.309408	0	0	0	0	0	0	-0	7.847891	-0	0	0	0
2.917	-143.832169	1196.026855	129.140594	1.062008	0	-0.309484	0	0	0	0	0	0	-0	7.851557	-0	0	0	0
2.918	-153.513824	1194.585938	130.529388	1.061819	0	-0.30956	0	0	0	0	0	0	-0	7.807162	-0	0	0	0
2.919	-162.966766	1191.459229	130.610962	1.061575	0	-0.309635	0	0	0	0	0	0	-0	7.714722	-0	0	0	0
2.92	-172.132889	1186.915649	129.373566	1.061269	0	-0.309709	0	0	0	0	0	0	-0	7.574837	-0	0	0	0
2.921	-180.961243	1181.230225	126.83078	1.060895	0	-0.30978	0	0	0	0	0	0	-0	7.388677	-0	0	0	0
2.922	-189.408615	1174.678345	123.021202	1.060445	0	-0.309847	0	0	0	0	0	0	-0	7.157954	-0	0	0	0
2.923	-197.439941	1167.531738	118.007538	1.059914	0	-0.309909	0	0	0	0	0	0	-0	6.88489	-0	0	0	0
2.924	-205.028183	1160.052856	111.875153	1.059293	0	-0.309963	0	0	0	0	0	0	-0	6.572182	-0	0	0	0
2.925	-212.154053	1152.491577	104.730095	1.058574	0	-0.310009	0	0	0	0	0	0	-0	6.222958	-0	0	0	0
2.926	-218.805298	1145.081543	96.696701	1.057752	0	-0.310046	0	0	0	0	0	0	-0	5.840725	-0	0	0	0
2.927	-224.975891	1138.037476	87.91477999999999	1.056817	0	-0.31007	0	0	0	0	0	0	-0	5.429327	-0	0	0	0
2.928	-230.664978	1131.553467	78.53649900000001	1.055762	0	-0.310082	0	0	0	0	0	0	-0	4.99288	-0	0	0	0
2.929	-235.87587	1125.800659	68.723068	1.054581	0	-0.310079	0	0	0	0	0	0	-0	4.535722	-0	0	0	0
2.93	-240.614807	1120.927734	58.641178	1.053268	0	-0.31006	0	0	0	0	0	0	-0	4.062352	-0	0	0	0
2.931	-244.890076	1117.059448	48.459373	1.051816	0	-0.310024	0	0	0	0	0	0	-0	3.577367	-0	0	0	0
2.932	-248.711075	1114.297729	38.344429	1.050221	0	-0.309969	0	0	0	0	0	0	-0	3.08541	-0	0	0	0
2.933	-252.087585	1112.721436	28.457748	1.048479	0	-0.309894	0	0	0	0	0	0	-0	2.591104	-0	0	0	0
2.934	-255.029358	1112.388184	18.951933	1.046588	0	-0.309799	0	0	0	0	0	0	-0	2.099002	-0	0	0	0
2.935	-257.545746	1113.334473	9.967548000000001	1.044546	0	-0.309683	0	0	0	0	0	0	-0	1.613525	-0	0	0	0
2.936	-259.645721	1115.577759	1.630202	1.042353	0	-0.309545	0	0	0	0	0	0	-0	1.138919	-0	0	0	0
2.937	-261.337921	1119.117188	-5.952002	1.040011	0	-0.309386	0	0	0	0	0	0	-0	0.6792010000000001	-0	0	0	0
2.938	-262.630798	1123.935547	-12.690571	1.037524	0	-0.309206	0	0	0	0	0	0	-0	0.238119	-0	0	0	0
2.939	-263.532959	1129.999878	-18.518221	1.034896	0	-0.309006	0	0	0	0	0	0	0	-0.180889	0	0	0	0
2.94	-264.053558	1137.264038	-23.389917	1.032133	0	-0.308786	0	0	0	0	0	0	0	-0.574724	0	0	0	0
2.941	-264.202271	1145.668945	-27.283325	1.029245	0	-0.308549	0	0	0	0	0	0	0	-0.940657	0	0	0	0
2.942	-263.989807	1155.144531	-30.198658	1.026239	0	-0.308296	0	0	0	0	0	0	0	-1.276353	0	0	0	0
2.943	-263.427704	1165.611206	-32.157921	1.023126	0	-0.308028	0	0	0	0	0	0	0	-1.57988	0	0	0	0
2.944	-262.528473	1176.980957	-33.203579	1.019917	0	-0.307748	0	0	0	0	0	0	0	-1.849726	0	0	0	0
2.945	-261.305298	1189.158936	-33.396667	1.016625	0	-0.307459	0	0	0	0	0	0	0	-2.084802	0	0	0	0
2.946	-259.771942	1202.044922	-32.814487	1.013262	0	-0.307162	0	0	0	0	0	0	0	-2.284438	0	0	0	0
2.947	-257.94223	1215.534424	-31.547859	1.00984	0	-0.30686	0	0	0	0	0	0	0	-2.448377	0	0	0	0
2.948	-255.829971	1229.521118	-29.698105	1.006374	0	-0.306556	0	0	0	0	0	0	0	-2.576766	0	0	0	0
2.949	-253.448425	1243.897217	-27.373859	1.002874	0	-0.306252	0	0	0	0	0	0	0	-2.670136	0	0	0	0
2.95	-250.810181	1258.55603	-24.687778	0.999353	0	-0.30595	0	0	0	0	0	0	0	-2.729379	0	0	0	0
2.951	-247.926987	1273.393066	-21.7533	0.995824	0	-0.305654	0	0	0	0	0	0	0	-2.755729	0	0	0	0
2.952	-244.809692	1288.307251	-18.68152	0.992296	0	-0.305364	0	0	0	0	0	0	0	-2.750728	0	0	0	0
2.953	-241.468384	1303.202637	-15.578313	0.988778	0	-0.305083	0	0	0	0	0	0	0	-2.716197	0	0	0	0
2.954	-237.912643	1317.98938	-12.541759	0.985281	0	-0.304813	0	0	0	0	0	0	0	-2.6542	0	0	0	0
2.955	-234.151886	1332.584717	-9.659941	0.981812	0	-0.304555	0	0	0	0	0	0	0	-2.567012	0	0	0	0
2.956	-230.195786	1346.913696	-7.009167	0.9783770000000001	0	-0.304309	0	0	0	0	0	0	0	-2.45708	0	0	0	0
2.957	-226.054794	1360.90979	-4.652654	0.974981	0	-0.304077	0	0	0	0	0	0	0	-2.326987	0	0	0	0
2.958	-221.740601	1374.514771	-2.639667	0.971631	0	-0.30386	0	0	0	0	0	0	0	-2.179413	0	0	0	0
2.959	-217.266556	1387.679199	-1.005125	0.968328	0	-0.303658	0	0	0	0	0	0	0	-2.0171	0	0	0	0
2.96	-212.648041	1400.362305	0.230351	0.965075	0	-0.303471	0	0	0	0	0	0	0	-1.842818	0	0	0	0
2.961	-207.902664	1412.531006	1.059986	0.961875	0	-0.303299	0	0	0	0	0	0	0	-1.659326	0	0	0	0
2.962	-203.050278	1424.160156	1.490024	0.958728	0	-0.303142	0	0	0	0	0	0	0	-1.469345	0	0	0	0
